<?xml version="1.0" encoding="UTF-8" standalone="no"?>
<svg width="222px" height="185px" viewBox="0 0 222 185" version="1.1" xmlns="http://www.w3.org/2000/svg" xmlns:xlink="http://www.w3.org/1999/xlink">
    <!-- Generator: Sketch 42 (36781) - http://www.bohemiancoding.com/sketch -->
    <title>Group</title>
    <desc>Created with Sketch.</desc>
    <defs>
        <rect id="path-1" x="0" y="10" width="61" height="176" rx="8"></rect>
        <mask id="mask-2" maskContentUnits="userSpaceOnUse" maskUnits="objectBoundingBox" x="0" y="0" width="61" height="176" fill="white">
            <use xlink:href="#path-1"></use>
        </mask>
        <rect id="path-3" x="21" y="59" width="17" height="78" rx="4"></rect>
        <mask id="mask-4" maskContentUnits="userSpaceOnUse" maskUnits="objectBoundingBox" x="0" y="0" width="17" height="78" fill="white">
            <use xlink:href="#path-3"></use>
        </mask>
        <rect id="path-5" x="58" y="10" width="61" height="176" rx="8"></rect>
        <mask id="mask-6" maskContentUnits="userSpaceOnUse" maskUnits="objectBoundingBox" x="0" y="0" width="61" height="176" fill="white">
            <use xlink:href="#path-5"></use>
        </mask>
        <rect id="path-7" x="81" y="59" width="17" height="78" rx="4"></rect>
        <mask id="mask-8" maskContentUnits="userSpaceOnUse" maskUnits="objectBoundingBox" x="0" y="0" width="17" height="78" fill="white">
            <use xlink:href="#path-7"></use>
        </mask>
        <rect id="path-9" x="139.074569" y="4.99796859" width="61" height="176" rx="8"></rect>
        <mask id="mask-10" maskContentUnits="userSpaceOnUse" maskUnits="objectBoundingBox" x="0" y="0" width="61" height="176" fill="white">
            <use xlink:href="#path-9"></use>
        </mask>
        <rect id="path-11" x="162.035831" y="53.7223312" width="17" height="78" rx="4"></rect>
        <mask id="mask-12" maskContentUnits="userSpaceOnUse" maskUnits="objectBoundingBox" x="0" y="0" width="17" height="78" fill="white">
            <use xlink:href="#path-11"></use>
        </mask>
    </defs>
    <g id="Page-1" stroke="none" stroke-width="1" fill="none" fill-rule="evenodd">
        <g id="Group" transform="translate(0.000000, -1.000000)" stroke="#4A4A4A">
            <use id="Rectangle" mask="url(#mask-2)" stroke-width="12" xlink:href="#path-1"></use>
            <path d="M6,28 L53.5,28" id="Line" stroke-width="4" stroke-linecap="square"></path>
            <path d="M2.5,168 L53.5,168" id="Line" stroke-width="4" stroke-linecap="square"></path>
            <use id="Rectangle-2" mask="url(#mask-4)" stroke-width="6" xlink:href="#path-3"></use>
            <use id="Rectangle" mask="url(#mask-6)" stroke-width="12" xlink:href="#path-5"></use>
            <path d="M64.5,28 L113.5,28" id="Line" stroke-width="4" stroke-linecap="square"></path>
            <path d="M61.5,168 L113.5,168" id="Line" stroke-width="4" stroke-linecap="square"></path>
            <use id="Rectangle-2" mask="url(#mask-8)" stroke-width="6" xlink:href="#path-7"></use>
            <use id="Rectangle" mask="url(#mask-10)" stroke-width="12" transform="translate(169.574569, 92.997969) rotate(-16.000000) translate(-169.574569, -92.997969) " xlink:href="#path-9"></use>
            <path d="M125.238981,26 L176.585509,26" id="Line" stroke-width="4" stroke-linecap="square" transform="translate(150.738981, 26.000000) rotate(-16.000000) translate(-150.738981, -26.000000) "></path>
            <path d="M161.044079,159.444662 L212.390607,159.444662" id="Line" stroke-width="4" stroke-linecap="square" transform="translate(186.544079, 159.444662) rotate(-16.000000) translate(-186.544079, -159.444662) "></path>
            <use id="Rectangle-2" mask="url(#mask-12)" stroke-width="8" transform="translate(170.535831, 92.722331) rotate(-16.000000) translate(-170.535831, -92.722331) " xlink:href="#path-11"></use>
        </g>
    </g>
</svg>