<?xml version="1.0" encoding="UTF-8" standalone="no"?>
<svg width="92px" height="93px" viewBox="0 0 92 93" version="1.1" xmlns="http://www.w3.org/2000/svg" xmlns:xlink="http://www.w3.org/1999/xlink">
    <!-- Generator: Sketch 42 (36781) - http://www.bohemiancoding.com/sketch -->
    <title>Group 2</title>
    <desc>Created with Sketch.</desc>
    <defs>
        <rect id="path-1" x="0" y="0" width="92" height="58" rx="8"></rect>
        <rect id="path-3" x="0" y="0" width="65" height="8" rx="4"></rect>
        <path d="M4.4408921e-16,11 C4.4408921e-16,4.92486775 4.92486775,0 11,0 C17.0751322,0 22,4.92486775 22,11 L0,11 L4.4408921e-16,11 Z" id="path-5"></path>
    </defs>
    <g id="Page-1" stroke="none" stroke-width="1" fill="none" fill-rule="evenodd">
        <g id="Artboard" transform="translate(0.000000, -2.000000)">
            <g id="Group-2" transform="translate(0.000000, 2.000000)">
                <g id="Group">
                    <g id="Page-1">
                        <g id="Group">
                            <g id="Rectangle">
                                <g id="path-1-Clipped">
                                    <mask id="mask-2" fill="white">
                                        <use xlink:href="#path-1"></use>
                                    </mask>
                                    <g id="path-1"></g>
                                    <rect id="path-1" stroke="#4A4A4A" stroke-width="6" mask="url(#mask-2)" x="0" y="0" width="92" height="58" rx="8"></rect>
                                </g>
                            </g>
                            <path d="M3.5,43.5 L89.5,43.5" id="Line" stroke="#4A4A4A" stroke-width="3" stroke-linecap="square"></path>
                            <g id="lessthan" transform="translate(29.000000, 15.000000)" stroke="#4A4A4A" stroke-width="2" stroke-linecap="square">
                                <path d="M7.5,0.40234375 L0,8" id="Line"></path>
                                <path d="M7,15 L0,8" id="Line"></path>
                            </g>
                            <path d="M42,30 L51,15" id="Line" stroke="#4A4A4A" stroke-width="2" stroke-linecap="square"></path>
                            <g id="lessthan" transform="translate(61.000000, 22.500000) scale(-1, 1) translate(-61.000000, -22.500000) translate(57.000000, 15.000000)" stroke="#4A4A4A" stroke-width="2" stroke-linecap="square">
                                <path d="M7.5,0.40234375 L0,8" id="Line"></path>
                                <path d="M7,15 L0,8" id="Line"></path>
                            </g>
                            <path d="M31.5,57.5 L24,70" id="Line" stroke="#4A4A4A" stroke-width="2" stroke-linecap="square"></path>
                            <g id="Rectangle-2" transform="translate(14.000000, 70.000000)">
                                <g id="path-3-Clipped">
                                    <mask id="mask-4" fill="white">
                                        <use xlink:href="#path-3"></use>
                                    </mask>
                                    <g id="path-3"></g>
                                    <rect id="path-3" stroke="#4A4A4A" stroke-width="4" mask="url(#mask-4)" x="0" y="0" width="65" height="8" rx="4"></rect>
                                </g>
                            </g>
                            <g id="Mouse" transform="translate(70.000000, 82.000000)">
                                <g id="Combined-Shape">
                                    <g id="path-5-Clipped">
                                        <mask id="mask-6" fill="white">
                                            <use xlink:href="#path-5"></use>
                                        </mask>
                                        <g id="path-5"></g>
                                        <path d="M4.4408921e-16,11 C4.4408921e-16,4.92486775 4.92486775,0 11,0 C17.0751322,0 22,4.92486775 22,11 L0,11 L4.4408921e-16,11 Z" id="path-5" stroke="#4A4A4A" stroke-width="4" mask="url(#mask-6)"></path>
                                    </g>
                                </g>
                                <path d="M11,1.22222222 L11,6.11111111" id="Line" stroke="#4A4A4A" stroke-width="2" stroke-linecap="square"></path>
                            </g>
                            <path d="M62,58 L69,70" id="Line" stroke="#4A4A4A" stroke-width="2" stroke-linecap="square"></path>
                        </g>
                    </g>
                </g>
                <path d="M81.5736169,56 C77.1283472,64.1906867 83.2232936,65.8318628 85.8583833,67.1675102 C88.493473,68.5031577 88.9644508,72.4242561 88.4783491,74.1277442 C87.4940408,77.5771406 81.973639,81.8229901 81.5736169,82.7207458" id="Path-2" stroke="#4A4A4A" stroke-width="2"></path>
            </g>
        </g>
    </g>
</svg>
