<?xml version="1.0" encoding="UTF-8" standalone="no"?>
<svg width="82px" height="103px" viewBox="0 0 82 103" version="1.1" xmlns="http://www.w3.org/2000/svg" xmlns:xlink="http://www.w3.org/1999/xlink">
    <!-- Generator: Sketch 42 (36781) - http://www.bohemiancoding.com/sketch -->
    <title>Group 7</title>
    <desc>Created with Sketch.</desc>
    <defs>
        <path d="M33,1.35925883 L33,12 L34,12 L34,0 L33,0 L33,0.0538515452 L30,2.57115044 L30.6427876,3.33719488 L33,1.35925883 Z" id="path-1"></path>
        <mask id="mask-2" maskContentUnits="userSpaceOnUse" maskUnits="objectBoundingBox" x="0" y="0" width="4" height="12" fill="white">
            <use xlink:href="#path-1"></use>
        </mask>
        <path d="M13,1.35925883 L13,12 L14,12 L14,0 L13,0 L13,0.0538515452 L10,2.57115044 L10.6427876,3.33719488 L13,1.35925883 Z" id="path-3"></path>
        <mask id="mask-4" maskContentUnits="userSpaceOnUse" maskUnits="objectBoundingBox" x="0" y="0" width="4" height="12" fill="white">
            <use xlink:href="#path-3"></use>
        </mask>
        <path d="M3,1.35925883 L3,12 L4,12 L4,0 L3,0 L3,0.0538515452 L1.42108547e-14,2.57115044 L0.64278761,3.33719488 L3,1.35925883 Z" id="path-5"></path>
        <mask id="mask-6" maskContentUnits="userSpaceOnUse" maskUnits="objectBoundingBox" x="0" y="0" width="4" height="12" fill="white">
            <use xlink:href="#path-5"></use>
        </mask>
        <path d="M12,1.35925883 L12,12 L13,12 L13,0 L12,0 L12,0.0538515452 L9,2.57115044 L9.64278761,3.33719488 L12,1.35925883 Z" id="path-7"></path>
        <mask id="mask-8" maskContentUnits="userSpaceOnUse" maskUnits="objectBoundingBox" x="0" y="0" width="4" height="12" fill="white">
            <use xlink:href="#path-7"></use>
        </mask>
        <path d="M32,1.35925883 L32,12 L33,12 L33,0 L32,0 L32,0.0538515452 L29,2.57115044 L29.6427876,3.33719488 L32,1.35925883 Z" id="path-9"></path>
        <mask id="mask-10" maskContentUnits="userSpaceOnUse" maskUnits="objectBoundingBox" x="0" y="0" width="4" height="12" fill="white">
            <use xlink:href="#path-9"></use>
        </mask>
        <path d="M41,1.35925883 L41,12 L42,12 L42,0 L41,0 L41,0.0538515452 L38,2.57115044 L38.6427876,3.33719488 L41,1.35925883 Z" id="path-11"></path>
        <mask id="mask-12" maskContentUnits="userSpaceOnUse" maskUnits="objectBoundingBox" x="0" y="0" width="4" height="12" fill="white">
            <use xlink:href="#path-11"></use>
        </mask>
        <path d="M22,1.35925883 L22,12 L23,12 L23,0 L22,0 L22,0.0538515452 L19,2.57115044 L19.6427876,3.33719488 L22,1.35925883 Z" id="path-13"></path>
        <mask id="mask-14" maskContentUnits="userSpaceOnUse" maskUnits="objectBoundingBox" x="0" y="0" width="4" height="12" fill="white">
            <use xlink:href="#path-13"></use>
        </mask>
        <path d="M52.1801948,0 L5.99643347,0 C2.68166671,0 0,2.68709541 0,6.00179558 L0,96.9982044 C0,100.311105 2.68469471,103 5.99643347,103 L76.0035665,103 C79.3183333,103 82,100.312905 82,96.9982044 L82,29.8198052 L52.1801948,-2.44249065e-15 Z" id="path-15"></path>
        <mask id="mask-16" maskContentUnits="userSpaceOnUse" maskUnits="objectBoundingBox" x="0" y="0" width="82" height="103" fill="white">
            <use xlink:href="#path-15"></use>
        </mask>
    </defs>
    <g id="Page-1" stroke="none" stroke-width="1" fill="none" fill-rule="evenodd">
        <g id="Group-7">
            <g id="Group-5" transform="translate(15.000000, 30.000000)" stroke="#4A4A4A">
                <g id="Group-3" transform="translate(0.000000, 20.000000)">
                    <path d="M42.3821434,12 C45.4197095,12 45.7893071,9.53756612 45.7893071,6.5 C45.7893071,3.46243388 45.4197095,1 42.3821434,1 C39.3445772,1 39,3.46243388 39,6.5 C39,9.53756612 39.3445772,12 42.3821434,12 Z" id="Oval"></path>
                    <use id="Combined-Shape" mask="url(#mask-2)" stroke-width="2" xlink:href="#path-1"></use>
                    <path d="M22.3821434,12 C25.4197095,12 25.7893071,9.53756612 25.7893071,6.5 C25.7893071,3.46243388 25.4197095,1 22.3821434,1 C19.3445772,1 19,3.46243388 19,6.5 C19,9.53756612 19.3445772,12 22.3821434,12 Z" id="Oval"></path>
                    <use id="Combined-Shape" mask="url(#mask-4)" stroke-width="2" xlink:href="#path-3"></use>
                    <use id="Combined-Shape" mask="url(#mask-6)" stroke-width="2" xlink:href="#path-5"></use>
                </g>
                <g id="Group" transform="translate(0.000000, 40.000000)">
                    <path d="M21.3821434,12 C24.4197095,12 24.7893071,9.53756612 24.7893071,6.5 C24.7893071,3.46243388 24.4197095,1 21.3821434,1 C18.3445772,1 18,3.46243388 18,6.5 C18,9.53756612 18.3445772,12 21.3821434,12 Z" id="Oval"></path>
                    <path d="M41.3821434,12 C44.4197095,12 44.7893071,9.53756612 44.7893071,6.5 C44.7893071,3.46243388 44.4197095,1 41.3821434,1 C38.3445772,1 38,3.46243388 38,6.5 C38,9.53756612 38.3445772,12 41.3821434,12 Z" id="Oval"></path>
                    <use id="Combined-Shape" mask="url(#mask-8)" stroke-width="2" xlink:href="#path-7"></use>
                    <use id="Combined-Shape" mask="url(#mask-10)" stroke-width="2" xlink:href="#path-9"></use>
                    <path d="M3.38214336,12 C6.41970949,12 6.78930706,9.53756612 6.78930706,6.5 C6.78930706,3.46243388 6.41970949,1 3.38214336,1 C0.344577239,1 0,3.46243388 0,6.5 C0,9.53756612 0.344577239,12 3.38214336,12 Z" id="Oval"></path>
                </g>
                <g id="Group-4">
                    <path d="M31.3821434,12 C34.4197095,12 34.7893071,9.53756612 34.7893071,6.5 C34.7893071,3.46243388 34.4197095,1 31.3821434,1 C28.3445772,1 28,3.46243388 28,6.5 C28,9.53756612 28.3445772,12 31.3821434,12 Z" id="Oval"></path>
                    <use id="Combined-Shape" mask="url(#mask-12)" stroke-width="2" xlink:href="#path-11"></use>
                    <use id="Combined-Shape" mask="url(#mask-14)" stroke-width="2" xlink:href="#path-13"></use>
                    <path d="M13.3821434,12 C16.4197095,12 16.7893071,9.53756612 16.7893071,6.5 C16.7893071,3.46243388 16.4197095,1 13.3821434,1 C10.3445772,1 10,3.46243388 10,6.5 C10,9.53756612 10.3445772,12 13.3821434,12 Z" id="Oval"></path>
                    <path d="M3.38214336,12 C6.41970949,12 6.78930706,9.53756612 6.78930706,6.5 C6.78930706,3.46243388 6.41970949,1 3.38214336,1 C0.344577239,1 0,3.46243388 0,6.5 C0,9.53756612 0.344577239,12 3.38214336,12 Z" id="Oval"></path>
                </g>
            </g>
            <g id="Group-6">
                <g id="Group-2" stroke="#4A4A4A" stroke-width="6">
                    <use id="Combined-Shape" mask="url(#mask-16)" xlink:href="#path-15"></use>
                </g>
                <polygon id="Triangle" fill="#4A4A4A" transform="translate(61.183651, 20.856810) rotate(-136.000000) translate(-61.183651, -20.856810) " points="61.183651 14.2509012 82.2375768 27.4627196 40.1297253 27.4627196"></polygon>
            </g>
        </g>
    </g>
</svg>