<?xml version="1.0" encoding="UTF-8" standalone="no"?>
<svg width="475px" height="474px" viewBox="0 0 475 474" version="1.1" xmlns="http://www.w3.org/2000/svg" xmlns:xlink="http://www.w3.org/1999/xlink">
    <!-- Generator: Sketch 42 (36781) - http://www.bohemiancoding.com/sketch -->
    <title>Group 3</title>
    <desc>Created with Sketch.</desc>
    <defs>
        <path d="M64.9598722,92.8277881 C67.9396548,86.9943281 74.0075546,83 80.998243,83 L110.001757,83 C111.673637,83 113.292274,83.2277846 114.828282,83.6540708 C118.826868,83.9571655 122.671236,85.949171 125.212987,89.4475906 L144.433846,115.902833 L187.025434,138.549182 C193.918235,142.21415 196.543332,150.785165 192.874388,157.685444 C189.204638,164.58724 180.638246,167.205689 173.739014,163.537303 L130.530827,140.563102 C129.656043,140.262739 128.807772,139.875817 127.999999,139.404575 L128,171.986372 L155.886387,165.548292 C163.510598,163.788104 171.105828,168.536602 172.863831,176.151352 C174.622221,183.767776 169.871061,191.3649 162.252681,193.123741 L117.079926,203.552693 C114.906673,204.484231 112.513793,205 110.001757,205 L80.998243,205 C79.3083689,205 77.6728895,204.767286 76.1221504,204.332096 C75.7458856,204.276439 75.3688471,204.2053 74.9917377,204.118238 L25.7942975,192.760114 C18.1759173,191.001272 13.4247569,183.404149 15.183147,175.787725 C16.9411506,168.172975 24.5363807,163.424477 32.1605916,165.184665 L63,172.304503 L63,140.887178 C62.3507277,141.205115 61.6800917,141.471652 60.9946595,141.685745 L21.7785837,162.537303 C14.8793518,166.205689 6.3145627,163.590255 2.64320967,156.685444 C-1.02573372,149.785165 1.59936277,141.21415 8.49216436,137.549182 L47.5602511,116.776312 L64.9598722,92.8277881 Z" id="path-1"></path>
        <mask id="mask-2" maskContentUnits="userSpaceOnUse" maskUnits="objectBoundingBox" x="0" y="0" width="193.547398" height="122" fill="white">
            <use xlink:href="#path-1"></use>
        </mask>
        <path d="M132.888166,156.529081 C145.786783,148.493205 154.110146,138.2077 154.110146,138.2077 L115.069127,101.044533 L111.072291,83.7323305 L137.293709,100.760719 C141.720643,103.635603 147.641205,102.375464 150.05647,98.6562834 L145.309382,105.966158 C147.931126,101.929026 152.389992,95.0629742 155.25997,90.643595 L150.509832,97.9581664 C153.383646,93.5328808 152.1238,87.6144081 147.69766,84.740039 L100.473277,54.0721665 C99.1058923,52.817825 97.4203038,51.7230178 95.4939084,50.8385265 L95.1693952,50.6277852 C93.6237128,49.6240073 91.8963649,49.1236765 90.1803275,49.0859487 C88.1346416,48.6404415 85.9469076,48.3992537 83.6733167,48.3992537 C73.2459937,48.3992537 64.6245802,53.4723871 63.2297191,60.0620606 C62.8149923,60.5737043 62.4472875,61.1362973 62.1362736,61.7466964 L43.8864216,97.5640478 L15.0213976,88.7391244 C9.9776375,87.1970921 4.63185726,90.0356564 3.08914389,95.0816444 L5.63910067,86.7411116 C4.09844636,91.7803648 1.70484962,99.609467 0.297451741,104.212858 L2.84577103,95.8776812 C1.54921507,100.118525 4.38908744,105.463797 9.43637586,107.006908 L46.2506887,118.262172 C47.1157752,118.526656 47.9910475,118.637586 48.8471655,118.610567 C50.5419329,119.474094 52.1167208,120.276488 53.4157974,120.938401 L48.8471655,118.610567 C50.903232,118.545675 52.8488204,117.685119 54.2775103,116.245024 C55.6938263,115.341787 56.9218773,114.057332 57.7486453,112.434708 L66.874149,94.5248985 L71.0908368,112.78938 L50.4052727,158.365885 C50.4052727,158.365885 60.2152661,161.319363 73.0157617,163.594241 L49.6892587,215.986425 C46.8505192,222.362338 49.7190583,229.849021 56.103766,232.691676 L45.5504584,227.993041 C51.9447972,230.839984 61.8328369,235.242423 67.6575249,237.835741 L57.1109943,233.140123 C62.4769495,235.5292 69.9614804,232.660973 72.8035535,226.277572 L99.5627238,166.175491 C102.677805,166.154441 105.722483,165.980654 108.618823,165.61262 C108.635116,165.638335 108.651574,165.663992 108.668197,165.689589 L117.244863,178.896497 C117.61612,179.468182 118.02576,179.999969 118.468203,180.490667 C118.540494,180.605816 118.616061,180.719761 118.694923,180.832387 L124.023726,188.442707 C126.559383,192.064001 131.551279,192.944928 135.172664,190.409207 L168.024006,167.40645 C173.743613,163.401537 175.131025,155.51358 171.122338,149.788582 L177.748312,159.251453 C173.733578,153.517819 167.525298,144.651475 163.868223,139.428632 L170.489942,148.885427 C167.120887,144.073917 159.23137,142.675392 153.511521,146.680473 L134.938109,159.685716 L132.888166,156.529081 Z" id="path-3"></path>
        <mask id="mask-4" maskContentUnits="userSpaceOnUse" maskUnits="objectBoundingBox" x="0" y="0" width="177.450861" height="189.436488" fill="white">
            <use xlink:href="#path-3"></use>
        </mask>
        <rect id="path-5" x="0" y="8.5483871" width="52.0133929" height="150.451613" rx="8"></rect>
        <mask id="mask-6" maskContentUnits="userSpaceOnUse" maskUnits="objectBoundingBox" x="0" y="0" width="52.0133929" height="150.451613" fill="white">
            <use xlink:href="#path-5"></use>
        </mask>
        <rect id="path-7" x="17.90625" y="50.4354839" width="14.4955357" height="66.6774194" rx="4"></rect>
        <mask id="mask-8" maskContentUnits="userSpaceOnUse" maskUnits="objectBoundingBox" x="0" y="0" width="14.4955357" height="66.6774194" fill="white">
            <use xlink:href="#path-7"></use>
        </mask>
        <rect id="path-9" x="49.4553571" y="8.5483871" width="52.0133929" height="150.451613" rx="8"></rect>
        <mask id="mask-10" maskContentUnits="userSpaceOnUse" maskUnits="objectBoundingBox" x="0" y="0" width="52.0133929" height="150.451613" fill="white">
            <use xlink:href="#path-9"></use>
        </mask>
        <rect id="path-11" x="69.0669643" y="50.4354839" width="14.4955357" height="66.6774194" rx="4"></rect>
        <mask id="mask-12" maskContentUnits="userSpaceOnUse" maskUnits="objectBoundingBox" x="0" y="0" width="14.4955357" height="66.6774194" fill="white">
            <use xlink:href="#path-11"></use>
        </mask>
        <rect id="path-13" x="118.585905" y="4.27245702" width="52.0133929" height="150.451613" rx="8"></rect>
        <mask id="mask-14" maskContentUnits="userSpaceOnUse" maskUnits="objectBoundingBox" x="0" y="0" width="52.0133929" height="150.451613" fill="white">
            <use xlink:href="#path-13"></use>
        </mask>
        <rect id="path-15" x="138.164481" y="45.9239283" width="14.4955357" height="66.6774194" rx="4"></rect>
        <mask id="mask-16" maskContentUnits="userSpaceOnUse" maskUnits="objectBoundingBox" x="0" y="0" width="14.4955357" height="66.6774194" fill="white">
            <use xlink:href="#path-15"></use>
        </mask>
    </defs>
    <g id="Page-2" stroke="none" stroke-width="1" fill="none" fill-rule="evenodd">
        <g id="Group-3" transform="translate(-53.000000, 3.000000)" stroke="#4A4A4A">
            <g id="Group-2" transform="translate(141.211818, 250.458595) rotate(-43.000000) translate(-141.211818, -250.458595) translate(43.711818, 147.958595)">
                <g id="Group" transform="translate(56.000000, 0.000000)" stroke-width="6">
                    <ellipse id="Oval-2" cx="36.344697" cy="36.5" rx="36.344697" ry="36.5"></ellipse>
                    <path d="" id="Path-2"></path>
                    <path d="" id="Path-3"></path>
                    <path d="M66.4516158,14.5144531 C67.872857,8.98386118 80.5981795,-0.905023918 85.0319454,8.1119449 C95.4190105,29.2361637 74.6126932,56.8063011 100.511319,69.6111431" id="Path-4"></path>
                    <path d="M72.6311109,39.4776316 C77.1390178,63.5151521 75.366697,67.2865952 99.5324633,69.594634" id="Path-5"></path>
                    <path d="M38.5758907,22.237685 C47.8028628,33.873227 56.2148898,32.8838525 72.6355942,35.9071752" id="Path-6"></path>
                    <path d="M0.792051373,41.3191406 C13.3852149,39.2431309 34.8318604,38.6154853 38.5758907,22.237685" id="Path-7"></path>
                </g>
                <use id="Combined-Shape" mask="url(#mask-2)" stroke-width="12" xlink:href="#path-1"></use>
            </g>
            <g id="Group" transform="translate(214.000000, 0.000000)">
                <use id="Combined-Shape" mask="url(#mask-4)" stroke-width="12" xlink:href="#path-3"></use>
                <ellipse id="Oval-2" stroke-width="6" cx="79.6783042" cy="21.0914179" rx="21.084788" ry="21.0914179"></ellipse>
                <path d="" id="Path-2" stroke-width="6"></path>
                <path d="" id="Path-3" stroke-width="6"></path>
                <path d="M97.1443462,8.38713415 C97.9688563,5.19129783 105.351246,-0.522965416 107.923424,4.68746356 C113.949312,16.8940314 101.878863,32.8253544 116.903532,40.2245948" id="Path-4" stroke-width="6"></path>
                <path d="M100.72928,22.8120336 C103.34447,36.7020443 102.316286,38.8813616 116.335665,40.2150551" id="Path-5" stroke-width="6"></path>
                <path d="M80.9726952,12.8499811 C86.3255738,19.5735448 91.2056752,19.0018377 100.731881,20.7488558" id="Path-6" stroke-width="6"></path>
                <path d="M59.053012,23.8761442 C66.3587321,22.676528 78.8006565,22.3138449 80.9726952,12.8499811" id="Path-7" stroke-width="6"></path>
            </g>
            <g id="Group" transform="translate(462.089395, 236.755313) rotate(25.000000) translate(-462.089395, -236.755313) translate(356.089395, 156.255313)">
                <path d="M78.1551681,116.444439 L134.33033,0 L212,161 L76.7147147,161 L0,161 L48.3843844,45.1818182 L78.1551681,116.444439 Z" id="Combined-Shape" stroke-width="6"></path>
                <path d="M119.113673,33.0009972 L122.103037,62.0769906 L136.659572,49.810427 L139.321173,56.3379619 L157.264291,48.417989 M144.452131,43.2437601 L144.452131,43.2437601 L144.459954,43.237168" id="Combined-Shape" stroke-width="4"></path>
                <polyline id="Triangle-3" stroke-width="4" transform="translate(50.524804, 78.511640) rotate(158.000000) translate(-50.524804, -78.511640) " points="40.2396857 87.656106 50.5248036 69.3671742 50.5248036 69.3671742 60.8099214 87.656106"></polyline>
            </g>
            <g id="Group" transform="translate(236.000000, 312.000000)">
                <use id="Rectangle" mask="url(#mask-6)" stroke-width="12" xlink:href="#path-5"></use>
                <path d="M5.11607143,23.9354839 L45.6183036,23.9354839" id="Line" stroke-width="4" stroke-linecap="square"></path>
                <path d="M2.13169643,143.612903 L45.6183036,143.612903" id="Line" stroke-width="4" stroke-linecap="square"></path>
                <use id="Rectangle-2" mask="url(#mask-8)" stroke-width="6" xlink:href="#path-7"></use>
                <use id="Rectangle" mask="url(#mask-10)" stroke-width="12" xlink:href="#path-9"></use>
                <path d="M54.9977679,23.9354839 L96.7790179,23.9354839" id="Line" stroke-width="4" stroke-linecap="square"></path>
                <path d="M52.4397321,143.612903 L96.7790179,143.612903" id="Line" stroke-width="4" stroke-linecap="square"></path>
                <use id="Rectangle-2" mask="url(#mask-12)" stroke-width="6" xlink:href="#path-11"></use>
                <use id="Rectangle" mask="url(#mask-14)" stroke-width="12" transform="translate(144.592601, 79.498263) rotate(-16.000000) translate(-144.592601, -79.498263) " xlink:href="#path-13"></use>
                <path d="M106.788596,22.2258065 L150.57068,22.2258065" id="Line" stroke-width="4" stroke-linecap="square" transform="translate(128.531899, 22.225806) rotate(-16.000000) translate(-128.531899, -22.225806) "></path>
                <path d="M137.318835,136.29947 L181.100919,136.29947" id="Line" stroke-width="4" stroke-linecap="square" transform="translate(159.062139, 136.299470) rotate(-16.000000) translate(-159.062139, -136.299470) "></path>
                <use id="Rectangle-2" mask="url(#mask-16)" stroke-width="8" transform="translate(145.412249, 79.262638) rotate(-16.000000) translate(-145.412249, -79.262638) " xlink:href="#path-15"></use>
            </g>
        </g>
    </g>
</svg>
