<?xml version="1.0" encoding="UTF-8" standalone="no"?>
<svg width="386px" height="530px" viewBox="0 0 386 530" version="1.1" xmlns="http://www.w3.org/2000/svg" xmlns:xlink="http://www.w3.org/1999/xlink">
    <!-- Generator: Sketch 42 (36781) - http://www.bohemiancoding.com/sketch -->
    <title>Group</title>
    <desc>Created with Sketch.</desc>
    <defs>
        <path d="M299.371788,352.511813 C328.42734,334.412822 347.176941,311.250539 347.176941,311.250539 L259.227363,227.556176 L250.229593,188.582551 L309.277902,226.928972 C319.247804,233.403502 332.575328,230.575059 338.024289,222.184395 L327.330006,238.652145 C333.236295,229.557258 343.272064,214.103529 349.746782,204.133338 L339.045628,220.61167 C345.519782,210.642347 342.684131,197.31081 332.716017,190.837441 L226.289449,121.723219 C223.241406,118.940537 219.496624,116.508284 215.222559,114.536297 L214.417068,114.013205 C210.921509,111.743162 207.013196,110.616728 203.13225,110.540677 C198.531405,109.541075 193.612038,109 188.5,109 C165.014894,109 145.596196,120.419702 142.446754,135.255089 C141.50484,136.414309 140.670039,137.68983 139.964551,139.074427 L98.872777,219.721576 L33.8528481,199.842988 C22.4813521,196.366373 10.4536698,202.765806 6.9782313,214.133453 L12.7227969,195.343826 C9.24705578,206.712463 3.85968072,224.333773 0.689082122,234.704333 L6.42995873,215.926772 C3.50486169,225.494333 9.90385831,237.521573 21.2708608,240.996815 L113.769647,269.276532 C114.089231,269.374238 114.410187,269.450951 114.73104,269.507459 L120.346237,272.368545 C118.658307,271.508502 116.764218,270.543415 114.73104,269.507459 C117.646832,270.020988 120.554027,268.865965 122.343533,266.635044 C123.368532,265.789895 124.240636,264.725355 124.882099,263.466414 L150.656291,212.881714 L160.153915,254.020444 L113.549671,356.66308 C113.549671,356.66308 135.646393,363.31258 164.480272,368.434071 L111.949746,486.419565 C105.548791,500.796345 112.020523,517.641162 126.404049,524.045121 L102.629463,513.459993 C117.014242,519.864509 139.310552,529.791466 152.432461,535.633717 L128.673142,525.055386 C140.779014,530.445267 157.621202,523.979616 164.021837,509.603553 L224.287438,374.244797 C231.307628,374.197034 238.16914,373.805056 244.696216,372.975289 L264.128142,402.89783 C264.961335,404.180836 265.880402,405.37459 266.872904,406.476442 L285.174938,432.614456 C287.706393,436.229748 292.69701,437.11444 296.315154,434.580989 L378.498674,377.035469 C391.384278,368.012871 394.519128,350.236316 385.488321,337.338988 L400.415375,358.657031 C391.383783,345.75858 377.384876,325.766069 369.146186,314 L384.063654,335.304353 C376.462891,324.449338 358.695899,321.31737 345.804817,330.343802 L303.989828,359.622972 L299.371788,352.511813 Z" id="path-1"></path>
        <mask id="mask-2" maskContentUnits="userSpaceOnUse" maskUnits="objectBoundingBox" x="0" y="0" width="399.726293" height="426.633717" fill="white">
            <use xlink:href="#path-1"></use>
        </mask>
    </defs>
    <g id="Page-1" stroke="none" stroke-width="1" fill="none" fill-rule="evenodd">
        <g id="Group" transform="translate(-5.000000, 3.000000)" stroke="#4A4A4A">
            <use id="Combined-Shape" mask="url(#mask-2)" stroke-width="12" xlink:href="#path-1"></use>
            <circle id="Oval-2" stroke-width="6" cx="179.5" cy="47.5" r="47.5"></circle>
            <path d="" id="Path-2" stroke-width="6"></path>
            <path d="" id="Path-3" stroke-width="6"></path>
            <path d="M218.847656,18.8886719 C220.70512,11.6913262 237.336235,-1.17777085 243.130859,10.5566406 C256.706034,38.0470623 229.513619,73.9260083 263.361328,90.5898438" id="Path-4" stroke-width="6"></path>
            <path d="M226.923828,51.375 C232.81535,82.6567047 230.49905,87.5647472 262.082031,90.5683594" id="Path-5" stroke-width="6"></path>
            <path d="M182.416016,28.9394531 C194.475029,44.0815968 205.468965,42.7940547 226.929688,46.7285156" id="Path-6" stroke-width="6"></path>
            <path d="M133.035156,53.7714844 C149.493548,51.0698279 177.522827,50.2530288 182.416016,28.9394531" id="Path-7" stroke-width="6"></path>
        </g>
    </g>
</svg>