<?xml version="1.0" encoding="UTF-8" standalone="no"?>
<svg width="194px" height="208px" viewBox="0 0 194 208" version="1.1" xmlns="http://www.w3.org/2000/svg" xmlns:xlink="http://www.w3.org/1999/xlink">
    <!-- Generator: Sketch 42 (36781) - http://www.bohemiancoding.com/sketch -->
    <title>Group 2</title>
    <desc>Created with Sketch.</desc>
    <defs>
        <path d="M64.9598722,92.8277881 C67.9396548,86.9943281 74.0075546,83 80.998243,83 L110.001757,83 C111.673637,83 113.292274,83.2277846 114.828282,83.6540708 C118.826868,83.9571655 122.671236,85.949171 125.212987,89.4475906 L144.433846,115.902833 L187.025434,138.549182 C193.918235,142.21415 196.543332,150.785165 192.874388,157.685444 C189.204638,164.58724 180.638246,167.205689 173.739014,163.537303 L130.530827,140.563102 C129.656043,140.262739 128.807772,139.875817 127.999999,139.404575 L128,171.986372 L155.886387,165.548292 C163.510598,163.788104 171.105828,168.536602 172.863831,176.151352 C174.622221,183.767776 169.871061,191.3649 162.252681,193.123741 L117.079926,203.552693 C114.906673,204.484231 112.513793,205 110.001757,205 L80.998243,205 C79.3083689,205 77.6728895,204.767286 76.1221504,204.332096 C75.7458856,204.276439 75.3688471,204.2053 74.9917377,204.118238 L25.7942975,192.760114 C18.1759173,191.001272 13.4247569,183.404149 15.183147,175.787725 C16.9411506,168.172975 24.5363807,163.424477 32.1605916,165.184665 L63,172.304503 L63,140.887178 C62.3507277,141.205115 61.6800917,141.471652 60.9946595,141.685745 L21.7785837,162.537303 C14.8793518,166.205689 6.3145627,163.590255 2.64320967,156.685444 C-1.02573372,149.785165 1.59936277,141.21415 8.49216436,137.549182 L47.5602511,116.776312 L64.9598722,92.8277881 Z" id="path-1"></path>
        <mask id="mask-2" maskContentUnits="userSpaceOnUse" maskUnits="objectBoundingBox" x="0" y="0" width="193.547398" height="122" fill="white">
            <use xlink:href="#path-1"></use>
        </mask>
    </defs>
    <g id="Page-1" stroke="none" stroke-width="1" fill="none" fill-rule="evenodd">
        <g id="Group-2" transform="translate(-1.000000, 3.000000)" stroke="#4A4A4A">
            <g id="Group" transform="translate(56.000000, 0.000000)" stroke-width="6">
                <ellipse id="Oval-2" cx="36.344697" cy="36.5" rx="36.344697" ry="36.5"></ellipse>
                <path d="" id="Path-2"></path>
                <path d="" id="Path-3"></path>
                <path d="M66.4516158,14.5144531 C67.872857,8.98386118 80.5981795,-0.905023918 85.0319454,8.1119449 C95.4190105,29.2361637 74.6126932,56.8063011 100.511319,69.6111431" id="Path-4"></path>
                <path d="M72.6311109,39.4776316 C77.1390178,63.5151521 75.366697,67.2865952 99.5324633,69.594634" id="Path-5"></path>
                <path d="M38.5758907,22.237685 C47.8028628,33.873227 56.2148898,32.8838525 72.6355942,35.9071752" id="Path-6"></path>
                <path d="M0.792051373,41.3191406 C13.3852149,39.2431309 34.8318604,38.6154853 38.5758907,22.237685" id="Path-7"></path>
            </g>
            <use id="Combined-Shape" mask="url(#mask-2)" stroke-width="12" xlink:href="#path-1"></use>
        </g>
    </g>
</svg>